<svg width="317" height="160" viewBox="0 0 317 160" fill="none" xmlns="http://www.w3.org/2000/svg">
<rect x="71" y="34" width="175" height="50" rx="5" fill="#00730C"/>
<path d="M113.488 65.18C112.084 65.18 110.896 64.916 109.924 64.388C108.964 63.86 108.232 63.11 107.728 62.138C107.224 61.166 106.972 60.014 106.972 58.682C106.972 57.338 107.23 56.18 107.746 55.208C108.262 54.224 109.006 53.468 109.978 52.94C110.95 52.4 112.114 52.13 113.47 52.13C114.142 52.13 114.814 52.214 115.486 52.382C116.17 52.538 116.812 52.808 117.412 53.192C117.676 53.348 117.826 53.558 117.862 53.822C117.91 54.074 117.874 54.314 117.754 54.542C117.634 54.77 117.454 54.932 117.214 55.028C116.974 55.112 116.71 55.07 116.422 54.902C115.966 54.638 115.504 54.446 115.036 54.326C114.568 54.206 114.046 54.146 113.47 54.146C112.126 54.146 111.106 54.536 110.41 55.316C109.726 56.096 109.384 57.218 109.384 58.682C109.384 60.158 109.738 61.28 110.446 62.048C111.154 62.816 112.204 63.2 113.596 63.2C113.992 63.2 114.394 63.17 114.802 63.11C115.222 63.038 115.636 62.936 116.044 62.804V59.852H114.064C113.44 59.852 113.128 59.564 113.128 58.988C113.128 58.424 113.44 58.142 114.064 58.142H117.034C117.658 58.142 117.97 58.454 117.97 59.078V63.452C117.97 64.004 117.754 64.358 117.322 64.514C116.794 64.706 116.188 64.868 115.504 65C114.82 65.12 114.148 65.18 113.488 65.18ZM124.762 65.18C123.766 65.18 122.908 64.994 122.188 64.622C121.468 64.25 120.91 63.722 120.514 63.038C120.13 62.354 119.938 61.544 119.938 60.608C119.938 59.696 120.124 58.898 120.496 58.214C120.88 57.53 121.402 56.996 122.062 56.612C122.734 56.216 123.496 56.018 124.348 56.018C125.596 56.018 126.58 56.414 127.3 57.206C128.032 57.998 128.398 59.078 128.398 60.446C128.398 60.89 128.11 61.112 127.534 61.112H122.098C122.266 62.684 123.166 63.47 124.798 63.47C125.11 63.47 125.458 63.434 125.842 63.362C126.238 63.278 126.61 63.14 126.958 62.948C127.27 62.768 127.534 62.714 127.75 62.786C127.966 62.846 128.116 62.972 128.2 63.164C128.296 63.356 128.308 63.572 128.236 63.812C128.176 64.04 128.008 64.238 127.732 64.406C127.312 64.67 126.826 64.868 126.274 65C125.734 65.12 125.23 65.18 124.762 65.18ZM124.438 57.548C123.778 57.548 123.244 57.752 122.836 58.16C122.428 58.568 122.182 59.12 122.098 59.816H126.526C126.478 59.084 126.274 58.526 125.914 58.142C125.566 57.746 125.074 57.548 124.438 57.548ZM134.177 65.18C131.849 65.18 130.685 64.028 130.685 61.724V57.89H129.749C129.149 57.89 128.849 57.608 128.849 57.044C128.849 56.48 129.149 56.198 129.749 56.198H130.685V54.56C130.685 53.804 131.063 53.426 131.819 53.426C132.563 53.426 132.935 53.804 132.935 54.56V56.198H134.843C135.443 56.198 135.743 56.48 135.743 57.044C135.743 57.608 135.443 57.89 134.843 57.89H132.935V61.598C132.935 62.174 133.061 62.606 133.313 62.894C133.565 63.182 133.973 63.326 134.537 63.326C134.741 63.326 134.921 63.308 135.077 63.272C135.233 63.236 135.371 63.212 135.491 63.2C135.635 63.188 135.755 63.236 135.851 63.344C135.947 63.44 135.995 63.644 135.995 63.956C135.995 64.196 135.953 64.412 135.869 64.604C135.797 64.784 135.659 64.91 135.455 64.982C135.299 65.03 135.095 65.072 134.843 65.108C134.591 65.156 134.369 65.18 134.177 65.18ZM142.282 65.144C141.862 65.144 141.562 65 141.382 64.712C141.202 64.424 141.208 64.076 141.4 63.668L146.152 53.138C146.308 52.79 146.494 52.544 146.71 52.4C146.938 52.244 147.196 52.166 147.484 52.166C147.76 52.166 148.006 52.244 148.222 52.4C148.45 52.544 148.642 52.79 148.798 53.138L153.568 63.668C153.76 64.088 153.772 64.442 153.604 64.73C153.436 65.006 153.148 65.144 152.74 65.144C152.404 65.144 152.14 65.066 151.948 64.91C151.768 64.742 151.606 64.49 151.462 64.154L150.562 62.066H144.37L143.488 64.154C143.332 64.502 143.17 64.754 143.002 64.91C142.834 65.066 142.594 65.144 142.282 65.144ZM147.448 54.812L145.162 60.23H149.77L147.484 54.812H147.448ZM170.985 67.034C171.189 67.358 171.243 67.646 171.147 67.898C171.063 68.162 170.889 68.354 170.625 68.474C170.373 68.606 170.097 68.642 169.797 68.582C169.509 68.522 169.263 68.33 169.059 68.006L167.817 66.008C167.481 65.456 166.911 65.18 166.107 65.18C164.883 65.18 163.815 64.91 162.903 64.37C161.991 63.83 161.283 63.074 160.779 62.102C160.275 61.118 160.023 59.966 160.023 58.646C160.023 57.314 160.275 56.162 160.779 55.19C161.283 54.218 161.991 53.468 162.903 52.94C163.815 52.4 164.889 52.13 166.125 52.13C167.361 52.13 168.435 52.4 169.347 52.94C170.259 53.468 170.967 54.218 171.471 55.19C171.975 56.162 172.227 57.308 172.227 58.628C172.227 60.068 171.927 61.304 171.327 62.336C170.739 63.368 169.923 64.124 168.879 64.604C169.143 64.7 169.377 64.844 169.581 65.036C169.797 65.228 170.007 65.486 170.211 65.81L170.985 67.034ZM166.125 63.2C167.289 63.2 168.195 62.798 168.843 61.994C169.491 61.19 169.815 60.074 169.815 58.646C169.815 57.206 169.491 56.09 168.843 55.298C168.207 54.506 167.301 54.11 166.125 54.11C164.961 54.11 164.055 54.506 163.407 55.298C162.759 56.09 162.435 57.206 162.435 58.646C162.435 60.074 162.759 61.19 163.407 61.994C164.055 62.798 164.961 63.2 166.125 63.2ZM177.54 65.18C175.38 65.18 174.3 63.968 174.3 61.544V57.188C174.3 56.432 174.672 56.054 175.416 56.054C176.172 56.054 176.55 56.432 176.55 57.188V61.58C176.55 62.204 176.676 62.666 176.928 62.966C177.18 63.266 177.582 63.416 178.134 63.416C178.734 63.416 179.226 63.212 179.61 62.804C179.994 62.384 180.186 61.832 180.186 61.148V57.188C180.186 56.432 180.558 56.054 181.302 56.054C182.058 56.054 182.436 56.432 182.436 57.188V63.992C182.436 64.76 182.07 65.144 181.338 65.144C180.606 65.144 180.24 64.76 180.24 63.992V63.686C179.652 64.682 178.752 65.18 177.54 65.18ZM187.675 65.18C187.039 65.18 186.469 65.06 185.965 64.82C185.473 64.568 185.083 64.232 184.795 63.812C184.519 63.392 184.381 62.918 184.381 62.39C184.381 61.742 184.549 61.232 184.885 60.86C185.221 60.476 185.767 60.2 186.523 60.032C187.279 59.864 188.293 59.78 189.565 59.78H190.195V59.402C190.195 58.802 190.063 58.37 189.799 58.106C189.535 57.842 189.091 57.71 188.467 57.71C188.119 57.71 187.741 57.752 187.333 57.836C186.937 57.92 186.517 58.064 186.073 58.268C185.785 58.4 185.545 58.418 185.353 58.322C185.161 58.214 185.029 58.052 184.957 57.836C184.897 57.608 184.909 57.38 184.993 57.152C185.089 56.924 185.275 56.756 185.551 56.648C186.103 56.42 186.631 56.258 187.135 56.162C187.651 56.066 188.119 56.018 188.539 56.018C189.823 56.018 190.777 56.318 191.401 56.918C192.025 57.506 192.337 58.424 192.337 59.672V63.992C192.337 64.76 191.989 65.144 191.293 65.144C190.585 65.144 190.231 64.76 190.231 63.992V63.596C190.027 64.088 189.703 64.478 189.259 64.766C188.815 65.042 188.287 65.18 187.675 65.18ZM188.143 63.632C188.731 63.632 189.217 63.428 189.601 63.02C189.997 62.612 190.195 62.096 190.195 61.472V61.076H189.583C188.455 61.076 187.669 61.166 187.225 61.346C186.793 61.514 186.577 61.826 186.577 62.282C186.577 62.678 186.715 63.002 186.991 63.254C187.267 63.506 187.651 63.632 188.143 63.632ZM198.653 65.18C196.325 65.18 195.161 64.028 195.161 61.724V57.89H194.225C193.625 57.89 193.325 57.608 193.325 57.044C193.325 56.48 193.625 56.198 194.225 56.198H195.161V54.56C195.161 53.804 195.539 53.426 196.295 53.426C197.039 53.426 197.411 53.804 197.411 54.56V56.198H199.319C199.919 56.198 200.219 56.48 200.219 57.044C200.219 57.608 199.919 57.89 199.319 57.89H197.411V61.598C197.411 62.174 197.537 62.606 197.789 62.894C198.041 63.182 198.449 63.326 199.013 63.326C199.217 63.326 199.397 63.308 199.553 63.272C199.709 63.236 199.847 63.212 199.967 63.2C200.111 63.188 200.231 63.236 200.327 63.344C200.423 63.44 200.471 63.644 200.471 63.956C200.471 64.196 200.429 64.412 200.345 64.604C200.273 64.784 200.135 64.91 199.931 64.982C199.775 65.03 199.571 65.072 199.319 65.108C199.067 65.156 198.845 65.18 198.653 65.18ZM205.779 65.18C204.783 65.18 203.925 64.994 203.205 64.622C202.485 64.25 201.927 63.722 201.531 63.038C201.147 62.354 200.955 61.544 200.955 60.608C200.955 59.696 201.141 58.898 201.513 58.214C201.897 57.53 202.419 56.996 203.079 56.612C203.751 56.216 204.513 56.018 205.365 56.018C206.613 56.018 207.597 56.414 208.317 57.206C209.049 57.998 209.415 59.078 209.415 60.446C209.415 60.89 209.127 61.112 208.551 61.112H203.115C203.283 62.684 204.183 63.47 205.815 63.47C206.127 63.47 206.475 63.434 206.859 63.362C207.255 63.278 207.627 63.14 207.975 62.948C208.287 62.768 208.551 62.714 208.767 62.786C208.983 62.846 209.133 62.972 209.217 63.164C209.313 63.356 209.325 63.572 209.253 63.812C209.193 64.04 209.025 64.238 208.749 64.406C208.329 64.67 207.843 64.868 207.291 65C206.751 65.12 206.247 65.18 205.779 65.18ZM205.455 57.548C204.795 57.548 204.261 57.752 203.853 58.16C203.445 58.568 203.199 59.12 203.115 59.816H207.543C207.495 59.084 207.291 58.526 206.931 58.142C206.583 57.746 206.091 57.548 205.455 57.548Z" fill="white"/>
<g opacity="0.5">
<g filter="url(#filter0_f_476_3394)">
<rect x="74" y="74" width="169" height="12" rx="5" fill="#00730C"/>
</g>
</g>
<defs>
<filter id="filter0_f_476_3394" x="0" y="0" width="317" height="160" filterUnits="userSpaceOnUse" color-interpolation-filters="sRGB">
<feFlood flood-opacity="0" result="BackgroundImageFix"/>
<feBlend mode="normal" in="SourceGraphic" in2="BackgroundImageFix" result="shape"/>
<feGaussianBlur stdDeviation="37" result="effect1_foregroundBlur_476_3394"/>
</filter>
</defs>
</svg>
